<svg fill="#000000" width="20px" height="20px" viewBox="0 0 0.55 0.55" xmlns="http://www.w3.org/2000/svg" id="memory-alpha-c"><path d="M0.375 0.025v0.025h0.05v0.025h0.025v0.025h0.025v0.025h0.025v0.05h0.025v0.2h-0.025v0.05h-0.025v0.025h-0.025v0.025h-0.025v0.025h-0.05v0.025H0.175v-0.025H0.125v-0.025H0.1v-0.025H0.075v-0.025H0.05v-0.05H0.025V0.175h0.025V0.125h0.025V0.1h0.025V0.075h0.025V0.05h0.05V0.025zm-0.025 0.05H0.2v0.025H0.15v0.025H0.125v0.025H0.1v0.05H0.075v0.15h0.025v0.05h0.025v0.025h0.025v0.025h0.05v0.025h0.15v-0.025h0.05v-0.025h0.025v-0.025h0.025v-0.05h0.025V0.2h-0.025V0.15h-0.025V0.125h-0.025V0.1h-0.05zM0.225 0.15h0.1v0.025h0.025v0.05h-0.05V0.2h-0.05v0.15h0.05v-0.025h0.05v0.05h-0.025v0.025H0.225v-0.025H0.2V0.175h0.025z"/></svg>