<svg width="20" height="20" viewBox="0 0 0.6 0.6" xmlns="http://www.w3.org/2000/svg"><g fill="none"><path d="M0.6 0v0.6H0V0zM0.315 0.581l0 0 -0.002 0.001 -0.001 0 0 0 -0.002 -0.001q0 0 -0.001 0l0 0 0 0.011 0 0.001 0 0 0.003 0.002 0 0 0 0 0.003 -0.002 0 0 0 0 0 -0.011q0 0 0 0m0.007 -0.003 0 0 -0.005 0.002 0 0 0 0 0 0.011 0 0 0 0 0.005 0.002q0 0 0.001 0l0 0 -0.001 -0.015q0 0 -0.001 -0.001m-0.018 0a0.001 0.001 0 0 0 -0.001 0l0 0 -0.001 0.015q0 0 0 0.001l0 0 0.005 -0.002 0 0 0 0 0 -0.011 0 0 0 0z"/><path d="M0.338 0.547C0.458 0.529 0.55 0.425 0.55 0.3c0 -0.138 -0.112 -0.25 -0.25 -0.25S0.05 0.162 0.05 0.3c0 0.125 0.092 0.229 0.213 0.247V0.375H0.225a0.038 0.038 0 0 1 0 -0.075h0.038v-0.05A0.088 0.088 0 0 1 0.35 0.163h0.013a0.038 0.038 0 0 1 0 0.075H0.35a0.013 0.013 0 0 0 -0.013 0.013v0.05H0.375a0.038 0.038 0 0 1 0 0.075h-0.038z" fill="#09244B"/></g></svg>