<svg width="20" height="20" viewBox="2.094 2.016 19.804 19.974" fill="none" xmlns="http://www.w3.org/2000/svg"><path d="M14.981 8.172c0.974 -0.047 1.124 1.548 0.055 1.408 -0.886 -0.025 -0.999 -1.383 -0.055 -1.408" fill="#fff"/><path d="M18.172 11.973c0.077 -5.71 -2.21 -6.449 -7.426 -6.132 -3.593 -0.277 -5.004 2.444 -5.014 5.663 -0.195 3.151 0.777 7.134 4.699 6.799 4.896 -0.087 7.968 -0.584 7.74 -6.33M9.611 2.145C15.219 1.623 21.71 2.427 21.788 9.446c0.197 3.231 0.302 6.694 -1.281 9.625 -1.685 2.866 -4.494 2.747 -7.416 2.814 -2.569 0.102 -5.218 0.325 -7.695 -0.517C2.872 20.494 2.185 18.589 2.24 16.097c-0.087 -2.145 -0.175 -4.285 -0.137 -6.432 0.125 -5.089 2.347 -7.638 7.508 -7.521" fill="#000"/><path d="M10.747 5.84c5.216 -0.317 7.501 0.422 7.426 6.132 0.227 5.745 -2.844 6.24 -7.738 6.33 -3.925 0.335 -4.894 -3.65 -4.699 -6.799 0.007 -3.218 1.418 -5.94 5.011 -5.663m6.327 6.312c0 -3.536 -0.434 -5.408 -4.449 -5.228 -1.194 0.117 -2.589 -0.06 -3.788 0.347 -2.407 1.176 -2.075 4.409 -1.853 6.652 0.217 3.623 3.221 3.516 6.032 3.111 3.453 -0.182 4.09 -1.673 4.057 -4.881" fill="#fff"/><path d="M12.38 9.833c-2.542 -0.13 -3.326 4.057 -0.537 4.17 2.622 -0.062 3.024 -3.423 0.537 -4.17m-0.532 -0.961c4.39 -0.297 4.12 6.19 -0.02 6.145 -3.923 -0.12 -3.556 -5.795 0.02 -6.145" fill="#fff"/><path d="M11.845 14.003c-2.789 -0.115 -2.007 -4.302 0.537 -4.17 2.484 0.747 2.082 4.107 -0.537 4.17" fill="#000"/><path d="M12.624 6.924c4.015 -0.182 4.452 1.693 4.449 5.228 0.03 3.209 -0.604 4.699 -4.057 4.881 -2.811 0.405 -5.815 0.512 -6.032 -3.111 -0.222 -2.245 -0.552 -5.476 1.853 -6.652 1.198 -0.407 2.594 -0.23 3.788 -0.347m-0.794 8.092c4.137 0.045 4.409 -6.442 0.02 -6.145 -3.578 0.35 -3.945 6.025 -0.02 6.145m3.206 -5.436c1.069 0.14 0.919 -1.453 -0.055 -1.408 -0.944 0.025 -0.831 1.383 0.055 1.408" fill="#000"/></svg>