<svg width="40px" height="40px" viewBox="0 0 1.2 1.2" fill="none" xmlns="http://www.w3.org/2000/svg"><path fill-rule="evenodd" clip-rule="evenodd" d="M0.629 1.091a0.05 0.05 0 0 1 -0.057 0l0 0 0 0 -0.001 -0.001a0.5 0.5 0 0 1 -0.015 -0.011A1.258 1.258 0 0 1 0.388 0.925C0.298 0.825 0.2 0.68 0.2 0.518c0 -0.11 0.042 -0.216 0.116 -0.295C0.391 0.145 0.493 0.1 0.6 0.1s0.209 0.045 0.284 0.123C0.959 0.302 1 0.408 1 0.518c0 0.162 -0.098 0.307 -0.188 0.407a1.25 1.25 0 0 1 -0.167 0.154 0.75 0.75 0 0 1 -0.015 0.011l-0.001 0.001 0 0h0zM0.45 0.5a0.15 0.15 0 1 1 0.3 0 0.15 0.15 0 0 1 -0.3 0" fill="#000000"/></svg>