<svg xmlns="http://www.w3.org/2000/svg" width="20" height="20" viewBox="0 0 30 30" xml:space="preserve"><path d="M15 0c8.911.167 14.942 7.001 15 15-.159 8.523-7.001 14.942-15 15a15.7 15.7 0 0 1-4.244-.616q.421-.68.842-1.506c.592-1.204.863-2.493 1.166-3.726q.194-.794.551-2.09.389.745 1.409 1.296c1.776.864 3.976.579 5.556-.227 2.217-1.259 3.516-3.215 4.212-5.41 1.34-5.091-.388-9.986-5.005-11.955-5.568-1.677-11.782.416-13.947 5.394-.945 3.327-.889 7.598 2.397 8.99q.259.097.47 0c.308-.176.666-1.704.599-2.025q-.032-.146-.227-.405c-1.817-2.459-.709-6.119.988-7.954 2.887-2.479 7.379-2.882 10.027-.518 2.348 2.74 1.815 7.003.308 9.719-.833 1.328-1.95 2.332-3.45 2.349-1.579-.035-2.77-1.371-2.365-2.883.344-1.774 1.3-3.656 1.328-5.313-.076-1.378-.766-2.252-2.041-2.268-2.035.257-2.856 2.159-2.883 3.888.065.831.115 1.676.486 2.365q-.648 2.624-1.004 4.228c-.364 1.897-1.078 3.881-1.182 5.718q-.049.907-.016 1.685C3.416 26.101.033 20.952 0 15 .162 6.343 7.001.058 15 0"/></svg>