<svg width="20px" height="20px" viewBox="0 0 0.375 0.375" fill="none" xmlns="http://www.w3.org/2000/svg"><path fill-rule="evenodd" clip-rule="evenodd" d="M0 0.188a0.188 0.188 0 1 1 0.375 0 0.188 0.188 0 0 1 -0.375 0m0.193 -0.055c-0.041 -0.003 -0.082 0.002 -0.116 0.014l-0.008 -0.024c0.038 -0.013 0.082 -0.018 0.126 -0.015 0.044 0.004 0.087 0.016 0.121 0.039l-0.014 0.021c-0.03 -0.02 -0.069 -0.032 -0.109 -0.035m-0.11 0.067c0.086 -0.015 0.146 -0.007 0.196 0.028l0.015 -0.02C0.236 0.167 0.168 0.159 0.079 0.175zm0.008 0.053c0.025 -0.006 0.055 -0.009 0.085 -0.006 0.03 0.003 0.058 0.011 0.08 0.027l0.014 -0.02c-0.026 -0.018 -0.059 -0.028 -0.092 -0.031a0.288 0.288 0 0 0 -0.093 0.006z" fill="#000000"/></svg>