<svg fill="darkgreen" width="40px" height="40px" viewBox="0 0 1.6 1.6" version="1.1" xmlns="http://www.w3.org/2000/svg"><title>starbucks</title><path d="M1.267 0.68c0.108 -0.037 0.178 0.07 0.262 0.045a0.4 0.4 0 0 1 -0.137 -0.295v0l0 -0.001a0.007 0.007 0 0 0 -0.011 -0.005 0.196 0.196 0 0 0 -0.079 0.128l0 0.001a0.193 0.193 0 0 0 -0.108 -0.033 0.195 0.195 0 0 0 -0.072 0.014l0.001 0a0.57 0.57 0 0 1 0.143 0.145l0.001 0.002zm-0.12 -0.331a0.247 0.247 0 0 0 -0.142 0.055l0 0a0.55 0.55 0 0 1 0.065 -0.128l-0.001 0.002a0.272 0.272 0 0 0 -0.171 0.077l0 0 -0.033 -0.088 0.074 -0.065 -0.099 -0.007L0.8 0.101l-0.04 0.092 -0.099 0.007 0.074 0.065 -0.033 0.088a0.272 0.272 0 0 0 -0.17 -0.077l-0.001 0a0.55 0.55 0 0 1 0.062 0.123l0.001 0.004a0.245 0.245 0 0 0 -0.141 -0.054l-0.001 0a0.66 0.66 0 0 1 0.082 0.132l0.002 0.004a0.009 0.009 0 0 0 0.013 0.004h0c0.073 -0.037 0.159 -0.058 0.25 -0.058s0.177 0.022 0.253 0.06l-0.003 -0.001a0.009 0.009 0 0 0 0.013 -0.004v0a0.665 0.665 0 0 1 0.085 -0.137l-0.001 0.001zm-0.479 0.262a0.077 0.077 0 0 1 0.078 -0.002l0 0c0.001 -0.016 -0.027 -0.033 -0.055 -0.033 -0.021 0 -0.031 0.007 -0.031 0.017 0 0.007 0.004 0.014 0.009 0.018zm0.243 -0.035 -0.003 0c-0.018 0 -0.034 0.007 -0.046 0.019a0.019 0.019 0 0 0 0.001 0.013l0 0c0.03 -0.01 0.057 -0.011 0.07 0.004a0.024 0.024 0 0 0 0.009 -0.018c0 -0.01 -0.01 -0.017 -0.031 -0.017M0.8 0.465a0.145 0.145 0 0 0 -0.143 0.089l0 0.001c-0.001 0.004 0 0.006 0.005 0.004 0.012 -0.005 0.026 -0.008 0.04 -0.008h0.002l0.004 0c0.026 0 0.048 0.011 0.064 0.029l0 0c0.003 0.01 0.005 0.022 0.005 0.035q0 0.019 -0.006 0.037l0 -0.001c-0.012 -0.003 -0.016 -0.012 -0.027 -0.012s-0.02 0.008 -0.04 0.008c-0.019 0 -0.022 -0.009 -0.034 -0.009 -0.015 0 -0.018 0.015 -0.018 0.033 0 0.078 0.071 0.184 0.147 0.184s0.147 -0.107 0.147 -0.184c0 -0.017 -0.004 -0.032 -0.019 -0.034a0.047 0.047 0 0 1 -0.03 0.011l-0.003 0h0c-0.019 0 -0.025 -0.008 -0.036 -0.008 -0.014 0 -0.012 0.029 -0.029 0.031a0.138 0.138 0 0 1 -0.002 -0.091l0 0.001a0.087 0.087 0 0 1 0.064 -0.029l0.004 0h0c0.015 0 0.028 0.003 0.041 0.009l-0.001 0c0.004 0.002 0.006 -0.001 0.005 -0.004a0.146 0.146 0 0 0 -0.143 -0.09h0zm-0.322 0.068a0.19 0.19 0 0 0 -0.071 -0.013 0.195 0.195 0 0 0 -0.109 0.033l0.001 0A0.196 0.196 0 0 0 0.221 0.424l-0.001 0a0.007 0.007 0 0 0 -0.011 0.006v0a0.4 0.4 0 0 1 -0.137 0.295l0 0c0.083 0.025 0.154 -0.082 0.262 -0.045a0.57 0.57 0 0 1 0.143 -0.146zm1.07 0.314q-0.001 0.027 -0.005 0.053c-0.085 0.014 -0.115 -0.061 -0.202 -0.058 0.004 0.015 0.009 0.034 0.012 0.053l0 0.003c0.072 0 0.1 0.067 0.18 0.057q-0.006 0.031 -0.015 0.061c-0.063 0.006 -0.085 -0.056 -0.158 -0.055q0.001 0.016 0.001 0.031l0 0.017 0.142 0.054q-0.011 0.03 -0.025 0.059c-0.043 -0.002 -0.057 -0.057 -0.122 -0.053q-0.003 0.021 -0.007 0.042c0.056 -0.004 0.068 0.048 0.109 0.052q-0.015 0.028 -0.033 0.055c-0.024 -0.013 -0.045 -0.051 -0.09 -0.054q0.007 -0.022 0.012 -0.044a0.187 0.187 0 0 1 -0.125 -0.051l0 0c0.013 -0.071 -0.098 -0.143 -0.098 -0.195 0 -0.057 0.029 -0.088 0.029 -0.164a0.238 0.238 0 0 0 -0.069 -0.16 0.14 0.14 0 0 0 -0.025 -0.02l-0.001 0a0.267 0.267 0 0 1 0.067 0.167v0.001c0 0.072 -0.033 0.11 -0.033 0.176s0.097 0.124 0.097 0.192a0.215 0.215 0 0 1 -0.037 0.105l0 -0.001c0.035 0.037 0.083 0.061 0.136 0.067l0.001 0a0.021 0.021 0 0 0 0.022 -0.013l0 0q0.006 -0.012 0.01 -0.024c0.039 0.002 0.057 0.037 0.079 0.052q-0.018 0.024 -0.038 0.047c-0.016 -0.023 -0.037 -0.04 -0.062 -0.051l-0.001 0q-0.008 0.015 -0.016 0.029a0.123 0.123 0 0 1 0.055 0.048l0 0.001q-0.021 0.022 -0.044 0.042a0.15 0.15 0 0 0 -0.041 -0.044l0 0q-0.009 0.013 -0.019 0.024c0.014 0.011 0.026 0.025 0.034 0.04l0 0.001q-0.027 0.021 -0.055 0.04c-0.009 -0.076 -0.113 -0.128 -0.085 -0.216a0.115 0.115 0 0 0 -0.02 0.058v0c0 0.064 0.068 0.115 0.073 0.178q-0.021 0.013 -0.043 0.024c-0.002 -0.07 -0.074 -0.146 -0.074 -0.203 0 -0.064 0.084 -0.128 0.084 -0.204s-0.097 -0.128 -0.097 -0.194 0.041 -0.104 0.041 -0.189a0.227 0.227 0 0 0 -0.075 -0.165l0 0a0.12 0.12 0 0 0 -0.025 -0.017l-0.001 0a0.244 0.244 0 0 1 0.068 0.169v0c0 0.08 -0.047 0.124 -0.047 0.202s0.095 0.122 0.095 0.195 -0.088 0.134 -0.088 0.209c0 0.068 0.078 0.136 0.079 0.217q-0.026 0.011 -0.052 0.02c0.01 -0.082 -0.078 -0.166 -0.078 -0.233 0 -0.073 0.092 -0.136 0.092 -0.214 0 -0.079 -0.093 -0.115 -0.093 -0.196s0.057 -0.125 0.057 -0.214a0.217 0.217 0 0 0 -0.084 -0.17l-0.001 0 -0.003 -0.002c-0.005 -0.004 -0.009 0.001 -0.005 0.005a0.228 0.228 0 0 1 0.054 0.156v0c0 0.082 -0.066 0.148 -0.066 0.227 0 0.093 0.088 0.12 0.088 0.196s-0.094 0.138 -0.094 0.219c0 0.075 0.089 0.159 0.074 0.246q-0.027 0.007 -0.055 0.012c0.017 -0.108 -0.071 -0.186 -0.071 -0.257 0 -0.077 0.098 -0.145 0.098 -0.22 0 -0.071 -0.07 -0.094 -0.079 -0.166a0.017 0.017 0 0 0 -0.02 -0.015h0a0.23 0.23 0 0 1 -0.061 0.012l-0.001 0a0.24 0.24 0 0 1 -0.063 -0.013l0.002 0.001a0.017 0.017 0 0 0 -0.02 0.015v0c-0.009 0.072 -0.079 0.095 -0.079 0.166 0 0.075 0.098 0.143 0.098 0.22 0 0.071 -0.088 0.148 -0.071 0.257q-0.028 -0.005 -0.055 -0.012c-0.015 -0.087 0.074 -0.17 0.074 -0.246 0 -0.081 -0.094 -0.142 -0.094 -0.219s0.088 -0.103 0.088 -0.196c0 -0.079 -0.066 -0.145 -0.066 -0.227l0 -0.007c0 -0.057 0.021 -0.109 0.055 -0.149l0 0c0.003 -0.004 -0.001 -0.008 -0.005 -0.005l-0.003 0.002a0.217 0.217 0 0 0 -0.084 0.17v0c0 0.089 0.057 0.134 0.057 0.214s-0.093 0.117 -0.093 0.196c0 0.079 0.092 0.141 0.092 0.214 0 0.067 -0.088 0.151 -0.078 0.233q-0.026 -0.009 -0.052 -0.02c0.001 -0.081 0.079 -0.149 0.079 -0.217 0 -0.075 -0.088 -0.136 -0.088 -0.209s0.095 -0.116 0.095 -0.195 -0.047 -0.123 -0.047 -0.202v0c0 -0.066 0.026 -0.125 0.068 -0.169l0 0a0.125 0.125 0 0 0 -0.026 0.018l0 0a0.226 0.226 0 0 0 -0.075 0.165v0c0 0.085 0.041 0.123 0.041 0.189s-0.097 0.119 -0.097 0.194c0 0.076 0.084 0.14 0.084 0.204 0 0.057 -0.072 0.134 -0.075 0.203q-0.022 -0.011 -0.043 -0.024c0.005 -0.064 0.073 -0.114 0.073 -0.178a0.115 0.115 0 0 0 -0.02 -0.059l0 0c0.028 0.088 -0.076 0.14 -0.085 0.216q-0.028 -0.019 -0.055 -0.04a0.13 0.13 0 0 1 0.035 -0.041l0 0q-0.01 -0.012 -0.019 -0.024a0.145 0.145 0 0 0 -0.041 0.043l0 0.001q-0.023 -0.02 -0.044 -0.042c0.013 -0.021 0.032 -0.038 0.054 -0.048l0.001 0q-0.009 -0.014 -0.016 -0.029a0.144 0.144 0 0 0 -0.063 0.051l0 0q-0.02 -0.023 -0.038 -0.047c0.022 -0.014 0.04 -0.05 0.079 -0.052q0.005 0.012 0.01 0.024a0.021 0.021 0 0 0 0.02 0.013q0.002 0 0.003 0h0a0.219 0.219 0 0 0 0.137 -0.067l0 0a0.213 0.213 0 0 1 -0.037 -0.104l0 -0.001c0 -0.068 0.097 -0.126 0.097 -0.192s-0.033 -0.104 -0.033 -0.176a0.267 0.267 0 0 1 0.068 -0.168l0 0a0.14 0.14 0 0 0 -0.026 0.021l0 0a0.238 0.238 0 0 0 -0.069 0.159v0c0 0.076 0.029 0.107 0.029 0.164 0 0.052 -0.11 0.124 -0.098 0.195a0.187 0.187 0 0 1 -0.124 0.051h0q0.005 0.022 0.012 0.044c-0.045 0.002 -0.066 0.041 -0.09 0.054q-0.018 -0.027 -0.033 -0.055c0.04 -0.004 0.052 -0.056 0.109 -0.052q-0.004 -0.021 -0.007 -0.042c-0.065 -0.004 -0.079 0.05 -0.122 0.053q-0.014 -0.029 -0.025 -0.059l0.142 -0.054 0 -0.017q0 -0.016 0.001 -0.031c-0.073 -0.002 -0.095 0.061 -0.158 0.055q-0.009 -0.03 -0.015 -0.061c0.08 0.01 0.109 -0.057 0.18 -0.057 0.004 -0.023 0.008 -0.042 0.014 -0.06l-0.001 0.004c-0.087 -0.004 -0.117 0.072 -0.202 0.058q-0.003 -0.027 -0.005 -0.053c0.099 0.011 0.136 -0.07 0.225 -0.06 0.01 -0.025 0.02 -0.045 0.031 -0.065l-0.001 0.003c-0.113 -0.02 -0.151 0.074 -0.255 0.06 0.012 -0.404 0.343 -0.728 0.749 -0.728S1.537 0.38 1.549 0.784v0.001c-0.105 0.014 -0.143 -0.08 -0.255 -0.06 0.01 0.017 0.02 0.037 0.028 0.059l0.001 0.004c0.09 -0.01 0.127 0.071 0.225 0.06zM0.8 0.705c-0.009 0 -0.011 -0.003 -0.017 -0.003a0.031 0.031 0 0 0 -0.02 0.009 0.01 0.01 0 0 0 0.003 0.006c0.013 0.002 0.019 0.009 0.035 0.009s0.021 -0.007 0.035 -0.009a0.01 0.01 0 0 0 0.003 -0.006v0a0.031 0.031 0 0 0 -0.02 -0.009h0c-0.006 0 -0.008 0.003 -0.017 0.003zm-0.054 0.046a0.009 0.009 0 0 0 -0.005 0.005v0c0.016 0.012 0.027 0.04 0.059 0.04s0.044 -0.028 0.059 -0.04a0.009 0.009 0 0 0 -0.005 -0.005h0a0.25 0.25 0 0 1 -0.05 0.005l-0.004 0H0.8l-0.004 0q-0.027 0 -0.052 -0.005zm0.13 -0.371a0.441 0.441 0 0 0 -0.153 0l0.003 0c-0.004 0.001 -0.005 -0.003 -0.002 -0.005 0.003 -0.002 0.078 -0.059 0.078 -0.059l0.078 0.059c0.003 0.002 0.002 0.006 -0.002 0.005"/></svg>