<svg width="20px" height="20px" viewBox="0 0 0.8 0.8" xmlns="http://www.w3.org/2000/svg"><g fill="none" fill-rule="evenodd"><path d="M0 0h0.8v0.8H0z"/><path d="M0.4 0c0.221 0 0.4 0.179 0.4 0.4s-0.179 0.4 -0.4 0.4S0 0.621 0 0.4 0.179 0 0.4 0m0.072 0.25c-0.02 0 -0.04 0.008 -0.054 0.022s-0.023 0.033 -0.023 0.054c0 0.006 0.001 0.012 0.002 0.017a0.22 0.22 0 0 1 -0.159 -0.079 0.074 0.074 0 0 0 -0.01 0.038 0.075 0.075 0 0 0 0.034 0.063 0.079 0.079 0 0 1 -0.035 -0.01v0.001c0 0.036 0.026 0.067 0.062 0.074a0.083 0.083 0 0 1 -0.02 0.003c-0.005 0 -0.01 -0.001 -0.014 -0.001a0.077 0.077 0 0 0 0.072 0.053 0.155 0.155 0 0 1 -0.095 0.032c-0.006 0 -0.012 0 -0.019 -0.001A0.22 0.22 0 0 0 0.331 0.55c0.141 0 0.219 -0.115 0.219 -0.215 0 -0.003 0 -0.007 0 -0.01 0.015 -0.011 0.028 -0.024 0.039 -0.039 -0.014 0.006 -0.029 0.01 -0.044 0.012a0.076 0.076 0 0 0 0.034 -0.042 0.152 0.152 0 0 1 -0.049 0.018A0.077 0.077 0 0 0 0.472 0.25" fill="#202327"/></g></svg>