<svg width="20" height="20" viewBox="2.104 2.02 19.775 19.974" fill="none" xmlns="http://www.w3.org/2000/svg"><path d="M11.446 10.24c-0.727 -0.202 -0.559 1.121 -0.599 1.563 0.11 0.342 -0.122 2.005 0.459 1.738 0.894 -0.412 1.647 -1.011 2.426 -1.616 0.172 -0.134 0.152 -0.403 -0.035 -0.516 -0.736 -0.448 -1.408 -0.959 -2.251 -1.169m-2.097 -3.416c4.13 -0.087 9.96 -1.328 9.63 4.717 0.452 5.386 -3.423 5.106 -7.438 5.089 -2.949 0.045 -5.908 0.087 -5.653 -3.745 -0.105 -2.841 -0.247 -5.96 3.461 -6.06" fill="#fff"/><path d="M9.141 2.11c4.052 0.015 9.581 -0.974 11.918 3.271 0.846 1.625 0.682 3.513 0.769 5.288 0.052 1.581 0.087 3.161 -0.015 4.737 -0.712 5.87 -3.728 6.642 -9.036 6.582 -2.212 0.055 -4.437 -0.21 -6.572 -0.787 -2.382 -0.482 -3.833 -2.739 -3.945 -5.066C2.09 12.357 1.673 7.431 3.663 4.087c1.243 -1.73 3.546 -1.775 5.478 -1.978m9.84 9.431c0.327 -6.045 -5.501 -4.804 -9.633 -4.717 -3.71 0.1 -3.566 3.218 -3.461 6.06 -0.252 3.835 2.704 3.79 5.653 3.745 4.015 0.02 7.893 0.297 7.441 -5.089" fill="#000"/><path d="M10.846 11.803c0.04 -0.442 -0.127 -1.768 0.599 -1.563 0.843 0.21 1.513 0.721 2.25 1.169 0.186 0.113 0.207 0.383 0.035 0.517 -0.778 0.605 -1.532 1.203 -2.425 1.616 -0.582 0.267 -0.35 -1.396 -0.459 -1.738" fill="#000"/></svg>